<svg width="109" height="20" viewBox="0 0 109 20" fill="none" xmlns="http://www.w3.org/2000/svg">
<path d="M14.3965 19.5625V15.2875H5.362V12.067H14.197V7.792H5.362V4.828H14.3965V0.552998H0.46V19.5625H14.3965ZM25.3367 19.5625L30.7517 5.797H26.1062L22.9712 14.518L19.8647 5.797H15.2477L20.6627 19.5625H25.3367ZM38.6865 19.9045C40.7955 19.9045 43.0755 19.306 44.4435 18.0805L42.591 15.3445C41.8215 16.0855 40.14 16.513 39.171 16.513C37.176 16.513 35.979 15.3445 35.7225 14.062H45.5265V13.1215C45.5265 8.4475 42.5625 5.455 38.487 5.455C34.1835 5.455 31.1625 8.6755 31.1625 12.6655C31.1625 17.14 34.44 19.9045 38.6865 19.9045ZM41.337 11.212H35.6655C35.8365 10.2145 36.5775 8.8465 38.487 8.8465C40.5105 8.8465 41.223 10.243 41.337 11.212ZM61.3968 19.5625V9.8155C61.3968 7.279 59.9718 5.455 56.8368 5.455C54.5283 5.455 52.9038 6.5095 52.0773 7.4785V5.797H47.6883V19.5625H52.0773V10.6705C52.5903 10.0435 53.4453 9.331 54.7563 9.331C56.1243 9.331 57.0078 9.9295 57.0078 11.611V19.5625H61.3968ZM69.7978 19.9045C71.4223 19.9045 72.5053 19.5055 73.0468 18.9925L72.1918 15.6865C72.0493 15.8575 71.5648 16.0285 71.0803 16.0285C70.3108 16.0285 69.8548 15.43 69.8548 14.632V9.616H72.6478V5.797H69.8548V2.035H65.4943V5.797H63.2143V9.616H65.4943V15.8575C65.4943 18.508 67.0048 19.9045 69.7978 19.9045ZM76.4483 3.8305C77.2463 3.8305 77.9018 3.2035 77.9018 2.4055C77.9018 1.6075 77.2463 0.951998 76.4483 0.951998C75.6788 0.951998 75.0233 1.6075 75.0233 2.4055C75.0233 3.2035 75.6788 3.8305 76.4483 3.8305ZM77.5313 19.5625V5.797H75.3938V19.5625H77.5313ZM87.8657 19.9045C90.3737 19.9045 91.8557 18.8785 92.9102 17.5105L91.4852 16.1995C90.5732 17.425 89.4047 17.995 87.9797 17.995C85.0442 17.995 83.2202 15.715 83.2202 12.6655C83.2202 9.616 85.0442 7.3645 87.9797 7.3645C89.4047 7.3645 90.5732 7.906 91.4852 9.16L92.9102 7.849C91.8557 6.481 90.3737 5.455 87.8657 5.455C83.7617 5.455 80.9972 8.59 80.9972 12.6655C80.9972 16.7695 83.7617 19.9045 87.8657 19.9045ZM108.019 19.5625L101.891 12.0385L107.99 5.797H105.283L98.0436 13.1215V0.552998H95.9061V19.5625H98.0436V15.6295L100.324 13.378L105.283 19.5625H108.019Z" fill="white"/>
</svg>
